<?xml version="1.0" encoding="utf-8"?>
<!-- Generator: Adobe Illustrator 16.0.0, SVG Export Plug-In . SVG Version: 6.00 Build 0)  -->
<!DOCTYPE svg PUBLIC "-//W3C//DTD SVG 1.1//EN" "http://www.w3.org/Graphics/SVG/1.1/DTD/svg11.dtd">
<svg version="1.1" id="Layer_1" xmlns="http://www.w3.org/2000/svg" xmlns:xlink="http://www.w3.org/1999/xlink" x="0px" y="0px"
	 width="612px" height="792px" viewBox="0 0 612 792" enable-background="new 0 0 612 792" xml:space="preserve">
<g>
	<path fill="#FFFFFF" d="M114.822,284.822c9.763-9.763,25.592-9.763,35.355,0s9.763,25.592,0,35.355s-25.592,9.763-35.355,0
		c-4.881-4.881-7.322-11.28-7.322-17.678"/>
	<g>
		<path fill="none" stroke="#BE1E2D" stroke-width="6" stroke-miterlimit="10" d="M127.593,277.983
			c7.917-1.577,16.449,0.703,22.585,6.839c9.763,9.763,9.763,25.592,0,35.355s-25.592,9.763-35.355,0
			c-4.881-4.881-7.322-11.28-7.322-17.678"/>
		<g>
			<path fill="#BE1E2D" d="M114.822,284.822c7.228-0.777,16.721-0.688,23.451,1.063l-8.787-8.374l-1.396-12.055
				C125.438,271.886,119.795,279.521,114.822,284.822z"/>
		</g>
	</g>
</g>
</svg>
