<?xml version="1.0" encoding="utf-8"?>
<!-- Generator: Adobe Illustrator 16.0.0, SVG Export Plug-In . SVG Version: 6.00 Build 0)  -->
<!DOCTYPE svg PUBLIC "-//W3C//DTD SVG 1.1//EN" "http://www.w3.org/Graphics/SVG/1.1/DTD/svg11.dtd">
<svg version="1.1" id="Layer_1" xmlns="http://www.w3.org/2000/svg" xmlns:xlink="http://www.w3.org/1999/xlink" x="0px" y="0px"
	 width="612px" height="792px" viewBox="0 0 612 792" enable-background="new 0 0 612 792" xml:space="preserve">
<g>
	<path fill="#FFFFFF" d="M150.178,284.822c-9.763-9.763-25.592-9.763-35.355,0s-9.763,25.592,0,35.355s25.592,9.763,35.355,0
		c4.881-4.881,7.322-11.28,7.322-17.678"/>
	<g>
		<path fill="none" stroke="#BE1E2D" stroke-width="6" stroke-miterlimit="10" d="M137.407,277.983
			c-7.917-1.577-16.449,0.703-22.585,6.839c-9.763,9.763-9.763,25.592,0,35.355s25.592,9.763,35.355,0
			c4.881-4.881,7.322-11.28,7.322-17.678"/>
		<g>
			<path fill="#BE1E2D" d="M150.178,284.822c-4.972-5.304-10.615-12.938-13.267-19.367l-1.397,12.057l-8.786,8.372
				C133.458,284.132,142.951,284.043,150.178,284.822z"/>
		</g>
	</g>
</g>
</svg>
